<?xml version="1.0" encoding="UTF-8" standalone="no"?>
<!-- Created with Inkscape (http://www.inkscape.org/) -->

<svg
   xmlns:dc="http://purl.org/dc/elements/1.1/"
   xmlns:cc="http://creativecommons.org/ns#"
   xmlns:rdf="http://www.w3.org/1999/02/22-rdf-syntax-ns#"
   xmlns:svg="http://www.w3.org/2000/svg"
   xmlns="http://www.w3.org/2000/svg"
   xmlns:sodipodi="http://sodipodi.sourceforge.net/DTD/sodipodi-0.dtd"
   xmlns:inkscape="http://www.inkscape.org/namespaces/inkscape"
   width="2000"
   height="1250"
   id="svg3107"
   version="1.1"
   inkscape:version="0.48.5 r10040"
   sodipodi:docname="bitbeaker.svg">
  <defs
     id="defs3109" />
  <sodipodi:namedview
     id="base"
     pagecolor="#ffffff"
     bordercolor="#ffffff"
     borderopacity="0.0"
     inkscape:pageopacity="0.0"
     inkscape:pageshadow="0"
     inkscape:zoom="0.45254834"
     inkscape:cx="912.42103"
     inkscape:cy="692.63089"
     inkscape:document-units="px"
     inkscape:current-layer="layer1"
     showgrid="false"
     inkscape:window-width="1920"
     inkscape:window-height="1018"
     inkscape:window-x="-8"
     inkscape:window-y="-8"
     inkscape:window-maximized="1" />
  <metadata
     id="metadata3112">
    <rdf:RDF>
      <cc:Work
         rdf:about="">
        <dc:format>image/svg+xml</dc:format>
        <dc:type
           rdf:resource="http://purl.org/dc/dcmitype/StillImage" />
        <dc:title></dc:title>
      </cc:Work>
    </rdf:RDF>
  </metadata>
  <g
     inkscape:label="Layer 1"
     inkscape:groupmode="layer"
     id="layer1"
     transform="translate(61.999999,-637.63733)">
    <rect
       style="fill:#205081;fill-opacity:1"
       id="rect3070-4-9"
       width="1024"
       height="500"
       x="-7.9776807"
       y="692.54883" />
    <g
       id="g3123"
       transform="matrix(2.8901905,0,0,2.8901905,-1235.7029,-115.64562)">
      <path
         sodipodi:nodetypes="sscccscssssscccscsscccsss"
         inkscape:connector-curvature="0"
         id="path5284-2-1-4-0"
         d="m 506.67077,320.89094 c -10.09291,0 -19.18592,1.28501 -26.08828,3.34136 -3.45115,1.02815 -6.45401,2.33656 -8.61041,3.8554 -2.15636,1.51889 -3.46987,3.36764 -3.46987,5.39758 3.7542,21.75919 4.89244,45.3793 6.93974,67.85521 -0.0165,0.17889 -0.12831,0.33023 -0.12831,0.51405 0,0.54482 0.12049,1.04094 0.25703,1.54217 0.45426,1.66652 1.55265,3.11299 2.95581,4.24095 1.82518,1.46719 4.23532,2.63521 7.06825,3.59838 5.66583,1.92639 13.14191,3.08433 21.46178,3.08433 8.31987,0 15.92447,-1.15794 21.5903,-3.08433 2.83293,-0.96317 5.11455,-2.13119 6.93974,-3.59838 1.72232,-1.38449 3.06808,-3.2165 3.21284,-5.39757 l 0.1283,0 3.7269,-56.16047 c 0,0 3.83049,-2.70048 3.98392,-3.59839 0.45953,-2.68908 -8.91539,-15.86397 -13.91159,-18.34533 -6.90231,-2.05634 -15.96325,-3.24496 -26.05615,-3.24496 z m 0.1283,3.21284 c 11.71251,0 20.78142,1.59707 24.80314,3.85541 3.55483,3.13203 6.73732,6.44723 7.48591,9.34938 -0.0288,1.65361 -8.09504,-1.98162 -13.14051,-2.66667 -5.09749,1.05143 -11.70182,1.67068 -19.14854,1.67068 -15.26059,0 -27.63043,-2.81879 -27.63043,-6.16866 0,-3.34986 12.36984,-6.04014 27.63043,-6.04014 z"
         style="font-size:medium;font-style:normal;font-variant:normal;font-weight:normal;font-stretch:normal;text-indent:0;text-align:start;text-decoration:none;line-height:normal;letter-spacing:normal;word-spacing:normal;text-transform:none;direction:ltr;block-progression:tb;writing-mode:lr-tb;text-anchor:start;baseline-shift:baseline;color:#000000;fill:#ffffff;fill-opacity:1;fill-rule:nonzero;stroke:none;stroke-width:1.20000005;marker:none;visibility:visible;display:inline;overflow:visible;enable-background:accumulate;font-family:Sans;-inkscape-font-specification:Sans" />
      <path
         sodipodi:nodetypes="ssscscccssccssccsccsc"
         id="path3-6-9-3-9-4"
         d="m 525.21428,383.65956 c -1.92622,1.91294 -4.24251,2.86991 -6.94957,2.86991 -2.71955,0 -5.04246,-0.95668 -6.96869,-2.86991 -1.92622,-1.96488 -2.88898,-4.28796 -2.88898,-6.96885 0,-2.70718 0.96313,-5.02343 2.88898,-6.94903 1.92623,-1.92623 4.24914,-2.88903 6.96869,-2.88903 2.70706,0 5.02335,0.96313 6.94957,2.88903 1.91257,1.9256 2.86945,4.24185 2.86945,6.94903 0,2.68061 -0.95022,5.00331 -2.84992,6.96885 z m -3.66977,-10.24819 c -0.91083,-0.91083 -2.00432,-1.36644 -3.27939,-1.36644 -1.28834,0 -2.38776,0.45561 -3.2985,1.36644 -0.91123,0.91119 -1.36644,2.00415 -1.36644,3.27934 0,1.27518 0.45521,2.37501 1.36644,3.29887 l 0.0206,0.0329 c 0.89791,0.89816 1.99104,1.34691 3.27901,1.34691 1.27544,0 2.36856,-0.44875 3.27938,-1.34691 l 0,-0.0329 c 0.91083,-0.92386 1.36644,-2.02369 1.36644,-3.29887 0,-1.27519 -0.45561,-2.36815 -1.36644,-3.27934 z"
         clip-rule="evenodd"
         inkscape:connector-curvature="0"
         style="fill:#205081;fill-opacity:1;fill-rule:evenodd" />
      <path
         sodipodi:nodetypes="cccccsssscccc"
         inkscape:connector-curvature="0"
         d="m 507.30161,346.95614 c -14.31387,0 -27.76191,3.20853 -27.76191,5.76778 0.56694,4.65713 2.77055,42.54937 3.00208,46.58889 0,0.42494 0.0942,0.81196 0.20028,1.20289 0.35449,1.29994 1.21111,2.42819 2.30559,3.308 1.42365,1.14445 3.30361,2.05548 5.5133,2.80678 4.41943,1.5026 10.25087,2.40582 16.74046,2.40582 6.48959,0 12.42129,-0.90322 16.84072,-2.40582 2.20969,-0.7513 3.98939,-1.66233 5.41307,-2.80678 1.34341,-1.07992 2.39311,-2.50891 2.50604,-4.21019 0.50715,-4.46487 2.54659,-42.65559 2.64471,-46.88939 0,-2.55925 -13.09079,-5.76777 -27.40466,-5.76777 z"
         style="font-size:medium;font-style:normal;font-variant:normal;font-weight:normal;font-stretch:normal;text-indent:0;text-align:start;text-decoration:none;line-height:normal;letter-spacing:normal;word-spacing:normal;text-transform:none;direction:ltr;block-progression:tb;writing-mode:lr-tb;text-anchor:start;baseline-shift:baseline;color:#000000;fill:none;stroke:#205081;stroke-width:2.60728502;stroke-miterlimit:4;stroke-opacity:1;stroke-dasharray:none;marker:none;visibility:visible;display:inline;overflow:visible;enable-background:accumulate;font-family:Sans;-inkscape-font-specification:Sans"
         id="path5582-6" />
      <path
         sodipodi:nodetypes="ssscscccssccssccsccsc"
         id="path3-6-9-3-9-9-3"
         d="m 505.01596,371.06148 c -1.42302,1.51313 -3.13417,2.27011 -5.134,2.27011 -2.00905,0 -3.72513,-0.75673 -5.14812,-2.27011 -1.42298,-1.55421 -2.13423,-3.39177 -2.13423,-5.51235 0,-2.14139 0.71153,-3.97356 2.13423,-5.49673 1.42299,-1.52361 3.13907,-2.2852 5.14812,-2.2852 1.99983,0 3.71098,0.76183 5.134,2.2852 1.41291,1.52317 2.1198,3.35534 2.1198,5.49673 0,2.12033 -0.70199,3.9576 -2.1054,5.51235 z m -2.71108,-8.10631 c -0.67284,-0.7205 -1.48068,-1.08087 -2.42264,-1.08087 -0.95174,0 -1.7639,0.36024 -2.43674,1.08087 -0.67316,0.72074 -1.00948,1.5853 -1.00948,2.59396 0,1.00866 0.3364,1.87864 1.00948,2.60938 l 0.0164,0.0247 c 0.66334,0.71043 1.4709,1.06541 2.42235,1.06541 0.94224,0 1.7498,-0.3549 2.42268,-1.06541 l 0,-0.0247 c 0.67287,-0.73074 1.00944,-1.60072 1.00944,-2.60938 0,-1.00866 -0.3364,-1.87322 -1.00944,-2.59396 z"
         clip-rule="evenodd"
         inkscape:connector-curvature="0"
         style="fill:#205081;fill-opacity:1;fill-rule:evenodd" />
      <path
         sodipodi:nodetypes="ssscscccssccssccsccsc"
         id="path3-6-9-3-9-7-8"
         d="m 505.43366,397.33169 c -2.17786,2.16281 -4.7967,3.24479 -7.85734,3.24479 -3.07483,0 -5.70116,-1.08165 -7.87898,-3.24479 -2.17786,-2.22154 -3.26638,-4.84807 -3.26638,-7.87915 0,-3.0608 1.08897,-5.6796 3.26638,-7.85677 2.17782,-2.17782 4.80415,-3.26638 7.87898,-3.26638 3.06064,0 5.67948,1.08893 7.85734,3.26638 2.1624,2.17717 3.24426,4.79597 3.24426,7.85677 0,3.03075 -1.07433,5.65687 -3.22217,7.87915 z m -4.14916,-11.58684 c -1.02979,-1.02979 -2.26612,-1.54496 -3.70773,-1.54496 -1.45663,0 -2.69965,0.51517 -3.72936,1.54496 -1.03029,1.03021 -1.54492,2.26592 -1.54492,3.70769 0,1.44174 0.51463,2.68526 1.54492,3.72978 l 0.0247,0.037 c 1.0152,1.01549 2.25111,1.52284 3.70732,1.52284 1.44203,0 2.67798,-0.50735 3.70778,-1.52284 l 0,-0.037 c 1.02979,-1.04452 1.54491,-2.28804 1.54491,-3.72978 0,-1.44177 -0.51512,-2.67748 -1.54491,-3.70769 z"
         clip-rule="evenodd"
         inkscape:connector-curvature="0"
         style="fill:#205081;fill-opacity:1;fill-rule:evenodd" />
    </g>
    <text
       xml:space="preserve"
       style="font-size:34.32596588px;font-style:normal;font-variant:normal;font-weight:bold;font-stretch:normal;line-height:125%;letter-spacing:-0.1542815px;word-spacing:0px;fill:#ffffff;fill-opacity:1;stroke:none;font-family:Titillium Web;-inkscape-font-specification:Titillium Web Bold"
       x="375.00412"
       y="961.33948"
       id="text3915-7-3"
       sodipodi:linespacing="125%"><tspan
         sodipodi:role="line"
         id="tspan3917-6-1"
         x="375.00412"
         y="961.33948"
         style="font-size:123.5734787px;font-style:normal;font-variant:normal;font-weight:bold;font-stretch:normal;letter-spacing:0px;fill:#ffffff;fill-opacity:1;font-family:Titillium Web;-inkscape-font-specification:Titillium Web Bold"
         dx="0">Bitbeaker</tspan></text>
    <text
       xml:space="preserve"
       style="font-size:16.67036629px;font-style:normal;font-variant:normal;font-weight:bold;font-stretch:normal;line-height:125%;letter-spacing:-0.07492663px;word-spacing:0px;fill:#ffffff;fill-opacity:1;stroke:none;font-family:Titillium Web;-inkscape-font-specification:Titillium Web Bold"
       x="380.77048"
       y="1028.0065"
       id="text3915-7-3-8"
       sodipodi:linespacing="125%"><tspan
         sodipodi:role="line"
         id="tspan3917-6-1-0"
         x="380.77048"
         y="1028.0065"
         style="font-size:60.01332474px;font-style:normal;font-variant:normal;font-weight:bold;font-stretch:normal;letter-spacing:0px;fill:#ffffff;fill-opacity:1;font-family:Titillium Web;-inkscape-font-specification:Titillium Web Bold">The Bitbucket client</tspan></text>
    <text
       xml:space="preserve"
       style="font-size:9.78554916px;font-style:normal;font-variant:normal;font-weight:bold;font-stretch:normal;line-height:125%;letter-spacing:-0.04398214px;word-spacing:0px;fill:#3c77b4;fill-opacity:1;stroke:none;font-family:Titillium Web;-inkscape-font-specification:Titillium Web Bold"
       x="1123"
       y="852.63733"
       id="text3915-7"
       sodipodi:linespacing="125%"><tspan
         sodipodi:role="line"
         id="tspan3917-6"
         x="1123"
         y="852.63733"
         style="font-size:35.22797775px;font-style:normal;font-variant:normal;font-weight:bold;font-stretch:normal;letter-spacing:0px;fill:#3c77b4;fill-opacity:1;font-family:Titillium Web;-inkscape-font-specification:Titillium Web Bold"
         dx="0">Bitbeaker</tspan></text>
    <path
       style="font-size:medium;font-style:normal;font-variant:normal;font-weight:normal;font-stretch:normal;text-indent:0;text-align:start;text-decoration:none;line-height:normal;letter-spacing:normal;word-spacing:normal;text-transform:none;direction:ltr;block-progression:tb;writing-mode:lr-tb;text-anchor:start;baseline-shift:baseline;color:#000000;fill:#3c77b4;fill-opacity:1;fill-rule:nonzero;stroke:none;stroke-width:1.20000005;marker:none;visibility:visible;display:inline;overflow:visible;enable-background:accumulate;font-family:Sans;-inkscape-font-specification:Sans"
       d="m 1196.7653,713.83681 c -12.0146,0 -22.8459,1.5521 -31.0625,4 -4.1083,1.2239 -7.683,2.7857 -10.25,4.5937 -2.5669,1.8081 -4.125,3.9898 -4.125,6.4063 4.469,25.9022 5.8441,54.0258 8.2813,80.78117 -0.02,0.213 -0.1563,0.4062 -0.1563,0.625 0,0.6486 0.1187,1.2159 0.2813,1.8125 0.5407,1.9839 1.8609,3.7198 3.5312,5.0625 2.1727,1.7466 5.0339,3.1347 8.4062,4.2813 6.7447,2.2932 15.6585,3.6562 25.5625,3.6562 9.9041,0 18.9429,-1.363 25.6875,-3.6562 3.3724,-1.1466 6.1086,-2.5347 8.2813,-4.2813 2.0503,-1.6481 3.6402,-3.8411 3.8125,-6.4375 l 0.1562,0 4.4375,-66.84367 c 0,0 4.5674,-3.2124 4.75,-4.2813 0.5471,-3.2011 -10.615,-18.8899 -16.5625,-21.8437 -8.2165,-2.4479 -19.0166,-3.875 -31.0312,-3.875 z m 0.1562,3.8437 c 13.9427,0 24.7438,1.9054 29.5313,4.5938 4.2317,3.7284 8.0151,7.6703 8.9062,11.125 -0.034,1.9684 -9.6501,-2.372 -15.6562,-3.1875 -6.0681,1.2516 -13.9166,2 -22.7813,2 -18.1662,0 -32.8749,-3.3561 -32.8749,-7.3438 0,-3.9877 14.7087,-7.1875 32.8749,-7.1875 z m 0.5938,25.6563 c 7.5712,0.2559 15.8426,0.7605 23.0312,2.3125 3.0811,0.6829 5.6387,1.4507 7.5313,2.3125 0.9463,0.4309 1.7365,0.8871 2.375,1.4375 0.6385,0.5504 1.25,1.3014 1.25,2.3437 l 0,0.031 c -0.1232,5.3159 -2.4902,49.98877 -3.1563,55.90627 0,0.021 0,0.042 0,0.062 l -0.031,0 c -0.1972,2.5672 -1.7358,4.588 -3.5312,6.0312 -1.8735,1.5061 -4.1543,2.6894 -6.9063,3.625 -5.4821,1.864 -12.6932,2.9375 -20.5625,2.9375 -7.8692,0 -14.9621,-1.0758 -20.4375,-2.9375 -2.7384,-0.931 -5.13,-2.0966 -7.0312,-3.625 -1.4996,-1.2055 -2.721,-2.7789 -3.25,-4.7187 -0.1263,-0.4656 -0.2659,-1.0654 -0.2812,-1.75 -8e-4,-0.038 -0.031,-0.055 -0.031,-0.094 -0.1411,-2.4603 -0.8533,-14.8505 -1.625,-27.37497 -0.7744,-12.5672 -1.632,-25.3961 -1.9375,-27.9063 l 0,-0.094 0,-0.094 c 0,-1.0603 0.6303,-1.7965 1.2812,-2.3437 0.6509,-0.5472 1.4413,-1.008 2.4063,-1.4375 1.9298,-0.859 4.5237,-1.6302 7.6562,-2.3125 6.265,-1.3647 14.6144,-2.3125 23.25,-2.3125 z m 0,3.0937 c -8.4037,0 -16.5634,0.9433 -22.5625,2.25 -2.9996,0.6534 -5.4895,1.411 -7.0937,2.125 -0.8022,0.3571 -1.3651,0.724 -1.6563,0.9688 -0.1213,0.102 -0.136,0.1385 -0.1562,0.1562 0.378,3.3156 1.1457,15.3776 1.9062,27.7188 0.7748,12.5744 1.5182,25.06027 1.6562,27.46867 l 0,0.031 0,0.062 c 0,0.2766 0.068,0.5918 0.1875,1.0313 0.315,1.1551 1.1127,2.2358 2.2188,3.125 1.4882,1.1963 3.5401,2.2361 6.0625,3.0937 5.0464,1.7158 11.8562,2.7813 19.4375,2.7813 7.5812,0 14.5228,-1.0678 19.5625,-2.7813 2.5089,-0.853 4.4528,-1.8751 5.9687,-3.0937 1.3859,-1.1141 2.3102,-2.4579 2.4063,-3.9063 l 0,-0.031 0,-0.031 c 0.5419,-4.7713 2.9944,-50.39967 3.125,-55.49997 -0.015,-0.022 -0.039,-0.056 -0.1563,-0.1562 -0.2803,-0.2416 -0.8441,-0.5819 -1.625,-0.9375 -1.5617,-0.7112 -3.9615,-1.4723 -6.9062,-2.125 -5.8895,-1.3055 -13.9713,-2.25 -22.375,-2.25 z m -8.8125,11.3125 c 2.3806,0 4.3998,0.9054 6.0937,2.7188 1.682,1.8132 2.5313,4.0134 2.5313,6.5625 0,2.524 -0.8294,4.7117 -2.5,6.5625 l -0.031,0 c -1.694,1.8012 -3.7131,2.6875 -6.0938,2.6875 -2.3915,0 -4.4623,-0.886 -6.1562,-2.6875 -1.6939,-1.8502 -2.5313,-4.0382 -2.5313,-6.5625 0,-2.5491 0.8377,-4.7493 2.5313,-6.5625 1.6939,-1.8137 3.7647,-2.7188 6.1562,-2.7188 z m 0,4.9063 c -1.133,0 -2.1053,0.4234 -2.9063,1.2812 -0.8013,0.858 -1.2187,1.8931 -1.2187,3.0938 0,1.2007 0.4175,2.2239 1.2187,3.0937 l 0,0.031 c 0.7897,0.8457 1.7737,1.2813 2.9063,1.2813 1.1216,0 2.074,-0.4355 2.875,-1.2813 l 0,-0.031 c 0.801,-0.8698 1.1875,-1.893 1.1875,-3.0937 0,-1.2007 -0.3863,-2.2358 -1.1875,-3.0938 -0.801,-0.8577 -1.7537,-1.2812 -2.875,-1.2812 z m 21.875,5.9062 c 3.2225,0 5.9883,1.1449 8.2812,3.4375 2.2768,2.2923 3.4063,5.0586 3.4063,8.2813 0,3.191 -1.1448,5.9414 -3.4063,8.2812 -2.2929,2.2772 -5.0587,3.4375 -8.2812,3.4375 -3.2374,0 -6.0195,-1.16 -8.3125,-3.4375 -2.293,-2.339 -3.4375,-5.0899 -3.4375,-8.2812 0,-3.2227 1.145,-5.989 3.4375,-8.2813 2.293,-2.2929 5.0751,-3.4375 8.3125,-3.4375 z m 0,6.1875 c -1.5337,0 -2.8534,0.5408 -3.9375,1.625 -1.0847,1.0847 -1.625,2.3883 -1.625,3.9063 0,1.518 0.5403,2.8377 1.625,3.9375 l 0.031,0.031 c 1.0689,1.0692 2.373,1.5937 3.9062,1.5937 1.5183,0 2.822,-0.5245 3.9063,-1.5937 l 0,-0.031 c 1.0842,-1.0998 1.625,-2.4195 1.625,-3.9375 0,-1.518 -0.5408,-2.8216 -1.625,-3.9063 -1.0842,-1.0842 -2.3884,-1.625 -3.9063,-1.625 z m -24.625,7.4688 c 3.6434,0 6.7512,1.3142 9.3437,3.9062 2.5742,2.5917 3.875,5.7002 3.875,9.34377 0,3.6078 -1.2869,6.7296 -3.8437,9.375 l -0.031,0 c -2.5925,2.5746 -5.7004,3.875 -9.3438,3.875 -3.6602,0 -6.7825,-1.3 -9.375,-3.875 -2.5925,-2.6445 -3.9062,-5.7668 -3.9062,-9.375 0,-3.64357 1.3143,-6.75207 3.9062,-9.34377 2.5925,-2.5925 5.7148,-3.9062 9.375,-3.9062 z m 0,7 c -1.734,0 -3.2117,0.6179 -4.4375,1.8437 -1.2265,1.2264 -1.8438,2.68997 -1.8438,4.40627 0,1.7162 0.6173,3.1941 1.8438,4.4375 l 0.031,0.062 c 1.2085,1.2088 2.6728,1.8125 4.4062,1.8125 1.7166,0 3.1804,-0.6037 4.4063,-1.8125 l 0,-0.062 c 1.2259,-1.2434 1.8437,-2.7213 1.8437,-4.4375 0,-1.7163 -0.6178,-3.17987 -1.8437,-4.40627 -1.2259,-1.2258 -2.6902,-1.8437 -4.4063,-1.8437 z"
       id="path5284-2-1-4-4-9"
       inkscape:connector-curvature="0"
       sodipodi:nodetypes="sscccscssssscccscsscccsssccsssccccssssccccsccsssscsssccsccsccssssccccssssscsccscscsscsccsccsssscscscscsscsccsccscsscsccscscsscsccsccscs" />
    <path
       style="font-size:medium;font-style:normal;font-variant:normal;font-weight:normal;font-stretch:normal;text-indent:0;text-align:start;text-decoration:none;line-height:normal;letter-spacing:normal;word-spacing:normal;text-transform:none;direction:ltr;block-progression:tb;writing-mode:lr-tb;text-anchor:start;baseline-shift:baseline;color:#000000;fill:#205081;fill-opacity:1;fill-rule:nonzero;stroke:none;stroke-width:1.20000005;marker:none;visibility:visible;display:inline;overflow:visible;enable-background:accumulate;font-family:Sans;-inkscape-font-specification:Sans"
       d="m 227.11219,1330.5462 c -29.17044,0 -55.45097,3.7139 -75.4001,9.6571 -9.97448,2.9716 -18.65332,6.7531 -24.88573,11.1429 -6.23229,4.3899 -10.02858,9.7331 -10.02858,15.6 10.85035,62.8882 14.14008,131.1548 20.05717,196.1145 -0.0477,0.517 -0.37084,0.9544 -0.37084,1.4857 0,1.5746 0.34824,3.0085 0.74286,4.4572 1.3129,4.8165 4.48746,8.9971 8.54286,12.2571 5.27511,4.2405 12.24088,7.6163 20.42859,10.4 16.37532,5.5676 37.98262,8.9143 62.02863,8.9143 24.04601,0 46.02475,-3.3467 62.40008,-8.9143 8.18771,-2.7837 14.78202,-6.1595 20.05717,-10.4 4.97783,-4.0014 8.86733,-9.2963 9.28572,-15.6 l 0.37081,0 10.77145,-162.3145 c 0,0 11.07085,-7.8049 11.51429,-10.4 1.32813,-7.7719 -25.76718,-45.8499 -40.20715,-53.0215 -19.94899,-5.9432 -46.13683,-9.3785 -75.30723,-9.3785 z m 0.37081,9.2857 c 33.85138,0 60.06226,4.6158 71.6858,11.1429 10.27413,9.0521 19.47214,18.6337 21.6357,27.0214 -0.0832,4.7793 -23.3962,-5.7272 -37.97857,-7.7071 -14.73272,3.0388 -33.82049,4.8285 -55.34293,4.8285 -44.10601,0 -79.85721,-8.1468 -79.85721,-17.8286 0,-9.6817 35.7512,-17.4571 79.85721,-17.4571 z"
       id="path5284-2-1-4-0-0"
       inkscape:connector-curvature="0"
       sodipodi:nodetypes="sscccscssssscccscsscccsss" />
    <path
       id="path5582-6-4"
       style="font-size:medium;font-style:normal;font-variant:normal;font-weight:normal;font-stretch:normal;text-indent:0;text-align:start;text-decoration:none;line-height:normal;letter-spacing:normal;word-spacing:normal;text-transform:none;direction:ltr;block-progression:tb;writing-mode:lr-tb;text-anchor:start;baseline-shift:baseline;color:#000000;fill:#205081;fill-opacity:1;stroke:#ffffff;stroke-width:7.53555059;stroke-miterlimit:4;stroke-opacity:1;stroke-dasharray:none;marker:none;visibility:visible;display:inline;overflow:visible;enable-background:accumulate;font-family:Sans;-inkscape-font-specification:Sans"
       d="m 228.93543,1405.8796 c -41.36981,0 -80.2372,9.2732 -80.2372,16.6699 1.63856,13.46 8.00741,122.9758 8.67658,134.6508 0,1.2282 0.27225,2.3467 0.57885,3.4766 1.02454,3.7571 3.50033,7.0179 6.66359,9.5607 4.11462,3.3077 9.54806,5.9408 15.93449,8.1122 12.77299,4.3428 29.62696,6.9532 48.38312,6.9532 18.75615,0 35.89989,-2.6104 48.67288,-6.9532 6.38643,-2.1714 11.5301,-4.8045 15.64481,-8.1122 3.88271,-3.1211 6.91654,-7.2512 7.24293,-12.1682 0.13729,-1.2075 0.3131,-3.2685 0.51957,-6.0227 2.00019,-26.6792 6.86709,-118.4051 7.12415,-129.4966 0,-3.6415 -9.16988,-7.7377 -23.41705,-10.9584 -14.69243,-3.3214 -34.78448,-5.7115 -55.78764,-5.7115 z"
       inkscape:connector-curvature="0"
       sodipodi:nodetypes="cccccsssscscscc" />
    <path
       style="fill:#ffffff;fill-opacity:1;fill-rule:evenodd;stroke:none"
       inkscape:connector-curvature="0"
       clip-rule="evenodd"
       d="m 280.70646,1511.9594 c -5.56714,5.5288 -12.26166,8.2946 -20.08558,8.2946 -7.86002,0 -14.57367,-2.765 -20.14084,-8.2946 -5.56714,-5.6788 -8.3497,-12.393 -8.3497,-20.1413 0,-7.8242 2.78363,-14.5186 8.3497,-20.084 5.56717,-5.5672 12.28082,-8.3498 20.14084,-8.3498 7.82392,0 14.51844,2.7836 20.08558,8.3498 5.52769,5.5654 8.29326,12.2598 8.29326,20.084 0,7.7475 -2.74632,14.4605 -8.23681,20.1413 z m -10.60633,-29.6192 c -2.63247,-2.6325 -5.79287,-3.9493 -9.47806,-3.9493 -3.72355,0 -6.90108,1.3168 -9.5333,3.9493 -2.63363,2.6335 -3.94927,5.7924 -3.94927,9.4779 0,3.6855 1.31564,6.8643 3.94927,9.5344 l 0.0595,0.095 c 2.59513,2.5958 5.75449,3.8928 9.47696,3.8928 3.68627,0 6.84559,-1.297 9.47804,-3.8928 l 0,-0.095 c 2.63247,-2.6701 3.94927,-5.8489 3.94927,-9.5344 0,-3.6855 -1.3168,-6.8444 -3.94927,-9.4779 z"
       id="path3-6-9-3-9-4-9"
       sodipodi:nodetypes="ssscscccssccssccsccsc" />
    <path
       style="fill:#ffffff;fill-opacity:1;fill-rule:evenodd;stroke:none"
       inkscape:connector-curvature="0"
       clip-rule="evenodd"
       d="m 222.32947,1475.5486 c -4.1128,4.3732 -9.05835,6.561 -14.83824,6.561 -5.80654,0 -10.76633,-2.1871 -14.87905,-6.561 -4.11268,-4.492 -6.16833,-9.8029 -6.16833,-15.9318 0,-6.189 2.05646,-11.4843 6.16833,-15.8866 4.11272,-4.4035 9.07251,-6.6046 14.87905,-6.6046 5.77989,0 10.72544,2.2018 14.83824,6.6046 4.08358,4.4023 6.12663,9.6976 6.12663,15.8866 0,6.1282 -2.02889,11.4383 -6.08501,15.9318 z m -7.83554,-23.4288 c -1.94463,-2.0824 -4.27944,-3.1239 -7.00189,-3.1239 -2.75071,0 -5.09801,1.0411 -7.04264,3.1239 -1.94556,2.0831 -2.91759,4.5818 -2.91759,7.497 0,2.9153 0.97226,5.4297 2.91759,7.5416 l 0.0474,0.071 c 1.91718,2.0533 4.25118,3.0793 7.00105,3.0793 2.72325,0 5.05726,-1.0257 7.00201,-3.0793 l 0,-0.071 c 1.94472,-2.1119 2.91747,-4.6263 2.91747,-7.5416 0,-2.9152 -0.97226,-5.4139 -2.91747,-7.497 z"
       id="path3-6-9-3-9-9-3-8"
       sodipodi:nodetypes="ssscscccssccssccsccsc" />
    <path
       style="fill:#ffffff;fill-opacity:1;fill-rule:evenodd;stroke:none"
       inkscape:connector-curvature="0"
       clip-rule="evenodd"
       d="m 223.5367,1551.4745 c -6.29443,6.2509 -13.86337,9.3781 -22.70921,9.3781 -8.88684,0 -16.47744,-3.1262 -22.77175,-9.3781 -6.29443,-6.4207 -9.44046,-14.0119 -9.44046,-22.7723 0,-8.8462 3.14733,-16.4151 9.44046,-22.7075 6.29431,-6.2943 13.88491,-9.4405 22.77175,-9.4405 8.84584,0 16.41478,3.1472 22.70921,9.4405 6.24975,6.2924 9.37653,13.8613 9.37653,22.7075 0,8.7595 -3.10502,16.3495 -9.31268,22.7723 z m -11.99186,-33.4882 c -2.97629,-2.9763 -6.54952,-4.4652 -10.71605,-4.4652 -4.20993,0 -7.8025,1.4889 -10.77856,4.4652 -2.97773,2.9775 -4.46511,6.549 -4.46511,10.7159 0,4.1669 1.48738,7.761 4.46511,10.7798 l 0.0714,0.107 c 2.93412,2.9349 6.50614,4.4013 10.71486,4.4013 4.16774,0 7.73987,-1.4664 10.71619,-4.4013 l 0,-0.107 c 2.97629,-3.0188 4.46509,-6.6129 4.46509,-10.7798 0,-4.1669 -1.4888,-7.7384 -4.46509,-10.7159 z"
       id="path3-6-9-3-9-7-8-8"
       sodipodi:nodetypes="ssscscccssccssccsccsc" />
    <text
       xml:space="preserve"
       style="font-size:34.32596588px;font-style:normal;font-variant:normal;font-weight:bold;font-stretch:normal;line-height:125%;letter-spacing:-0.1542815px;word-spacing:0px;fill:#205081;fill-opacity:1;stroke:none;font-family:Titillium Web;-inkscape-font-specification:Titillium Web Bold"
       x="373.44412"
       y="1480.0952"
       id="text3915-7-3-2"
       sodipodi:linespacing="125%"><tspan
         sodipodi:role="line"
         id="tspan3917-6-1-4"
         x="373.44412"
         y="1480.0952"
         style="font-size:123.5734787px;font-style:normal;font-variant:normal;font-weight:bold;font-stretch:normal;letter-spacing:0px;fill:#205081;fill-opacity:1;font-family:Titillium Web;-inkscape-font-specification:Titillium Web Bold"
         dx="0">Bitbeaker</tspan></text>
    <text
       xml:space="preserve"
       style="font-size:16.67036629px;font-style:normal;font-variant:normal;font-weight:bold;font-stretch:normal;line-height:125%;letter-spacing:-0.07492663px;word-spacing:0px;fill:#205081;fill-opacity:1;stroke:none;font-family:Titillium Web;-inkscape-font-specification:Titillium Web Bold"
       x="379.21048"
       y="1546.7622"
       id="text3915-7-3-8-5"
       sodipodi:linespacing="125%"><tspan
         sodipodi:role="line"
         id="tspan3917-6-1-0-5"
         x="379.21048"
         y="1546.7622"
         style="font-size:60.01332474px;font-style:normal;font-variant:normal;font-weight:bold;font-stretch:normal;letter-spacing:0px;fill:#205081;fill-opacity:1;font-family:Titillium Web;-inkscape-font-specification:Titillium Web Bold">The Bitbucket client</tspan></text>
    <text
       xml:space="preserve"
       style="font-size:4.80909967px;font-style:normal;font-weight:normal;line-height:125%;letter-spacing:0px;word-spacing:0px;fill:#000000;fill-opacity:1;stroke:none;font-family:Sans"
       x="1255.4272"
       y="899.151"
       id="text3037-4-9-7"
       sodipodi:linespacing="125%"><tspan
         sodipodi:role="line"
         x="1255.4272"
         y="899.151"
         style="font-size:8.6563797px"
         id="tspan3896-3">splash</tspan></text>
    <text
       xml:space="preserve"
       style="font-size:17px;font-style:normal;font-variant:normal;font-weight:bold;font-stretch:normal;line-height:125%;letter-spacing:-0.07492663px;word-spacing:0px;fill:#3c77b4;fill-opacity:1;stroke:none;font-family:Titillium Web;-inkscape-font-specification:Titillium Web Bold"
       x="1124.875"
       y="869.51233"
       id="text3915-7-3-8-5-1"
       sodipodi:linespacing="125%"><tspan
         sodipodi:role="line"
         id="tspan3917-6-1-0-5-7"
         x="1124.875"
         y="869.51233"
         style="font-size:17px;font-style:normal;font-variant:normal;font-weight:bold;font-stretch:normal;letter-spacing:0px;fill:#3c77b4;fill-opacity:1;font-family:Titillium Web;-inkscape-font-specification:Titillium Web Bold">The Bitbucket client</tspan></text>
  </g>
</svg>
